<?xml version="1.0" encoding="UTF-8"?>
<svg id="home_img" data-name="home img" xmlns="http://www.w3.org/2000/svg" version="1.1" viewBox="0 0 64 32">
  <defs>
    <style>
      .cls-1 {
        fill: #000;
      }

      .cls-1, .cls-2 {
        stroke-width: 0px;
      }

      .cls-2 {
        fill: #f5c518;
      }
    </style>
  </defs>
  <rect class="cls-2" width="64" height="32" rx="4" ry="4"/>
  <g>
    <polygon class="cls-1" points="25 25 30 25 30 7 25 7 25 25"/>
    <path class="cls-1" d="M16.7,7l-1.1,8.4-.7-4.6c-.2-1.5-.4-2.7-.6-3.8h-6.3v18h4.2v-11.9s1.8,11.9,1.8,11.9h3l1.7-12.1v12.1h4.2V7h-6.3Z"/>
    <path class="cls-1" d="M32,25V7h7.8c1.8,0,3.2,1.4,3.2,3.2v11.6c0,1.8-1.4,3.2-3.2,3.2h-7.8ZM37.8,10.2c-.2-.1-.6-.2-1.1-.2v11.8c.7,0,1.2-.1,1.3-.4.2-.3.3-1,.3-2.2v-7c0-.8,0-1.3,0-1.6,0-.2-.2-.4-.4-.5Z"/>
    <path class="cls-1" d="M52.4,11.5h.3c1.8,0,3.3,1.4,3.3,3.1v7.2c0,1.7-1.5,3.1-3.3,3.1h-.3c-1.1,0-2.1-.5-2.7-1.3l-.3,1.1h-4.5V7h4.8v5.8c.6-.8,1.6-1.3,2.6-1.3ZM51.4,20.3v-4.3c0-.7,0-1.2-.1-1.4,0-.2-.5-.3-.7-.3s-.7.1-.8.3v7.2c0,.2.5.3.8.3s.7-.1.7-.3.1-.7.1-1.5Z"/>
  </g>
</svg>